<?xml version="1.0" encoding="UTF-8" standalone="no"?>
<svg
   width="64"
   height="64"
   version="1.1"
   viewBox="0 0 64 64"
   id="svg6"
   sodipodi:docname="vmware-workstation.svg"
   inkscape:version="1.1 (c4e8f9ed74, 2021-05-24)"
   xmlns:inkscape="http://www.inkscape.org/namespaces/inkscape"
   xmlns:sodipodi="http://sodipodi.sourceforge.net/DTD/sodipodi-0.dtd"
   xmlns:xlink="http://www.w3.org/1999/xlink"
   xmlns="http://www.w3.org/2000/svg"
   xmlns:svg="http://www.w3.org/2000/svg">
  <defs
     id="defs10">
    <linearGradient
       inkscape:collect="always"
       id="linearGradient1085">
      <stop
         style="stop-color:#feb200;stop-opacity:1"
         offset="0"
         id="stop1081" />
      <stop
         style="stop-color:#fed900;stop-opacity:1"
         offset="1"
         id="stop1083" />
    </linearGradient>
    <linearGradient
       inkscape:collect="always"
       id="linearGradient861">
      <stop
         style="stop-color:#feb200;stop-opacity:1"
         offset="0"
         id="stop857" />
      <stop
         style="stop-color:#fecf00;stop-opacity:0.85040087"
         offset="1"
         id="stop859" />
    </linearGradient>
    <linearGradient
       inkscape:collect="always"
       xlink:href="#linearGradient861"
       id="linearGradient863"
       x1="18.149317"
       y1="13.928883"
       x2="56.084133"
       y2="24.909967"
       gradientUnits="userSpaceOnUse" />
    <linearGradient
       inkscape:collect="always"
       xlink:href="#linearGradient1085"
       id="linearGradient1087"
       x1="5.2453427"
       y1="60.304821"
       x2="39.726715"
       y2="20.907721"
       gradientUnits="userSpaceOnUse" />
  </defs>
  <sodipodi:namedview
     id="namedview8"
     pagecolor="#ffffff"
     bordercolor="#111111"
     borderopacity="1"
     inkscape:pageshadow="0"
     inkscape:pageopacity="0"
     inkscape:pagecheckerboard="1"
     showgrid="false"
     inkscape:zoom="12.921875"
     inkscape:cx="31.961306"
     inkscape:cy="32"
     inkscape:window-width="1920"
     inkscape:window-height="1021"
     inkscape:window-x="0"
     inkscape:window-y="0"
     inkscape:window-maximized="1"
     inkscape:current-layer="svg6" />
  <path
     d="m43.356 63.432c2.3372 0 4.2188-2.007 4.2188-4.5v-39c0-2.493-1.8816-4.5-4.2188-4.5h-36.562c-2.3372 0-4.2188 2.007-4.2188 4.5v39c0 2.493 1.8816 4.5 4.2188 4.5zm-7.0312-12h-22.5v-24h22.5z"
     fill="#fecf00"
     id="path2"
     style="fill-opacity:1;fill:url(#linearGradient1087)" />
  <path
     d="m55.875 48c2.2852 0 4.125-1.9652 4.125-4.4062v-38.188c0-2.4411-1.8398-4.4062-4.125-4.4062h-35.75c-2.2852 0-4.125 1.9652-4.125 4.4062v7.3438h33v23.5h-22l-0.27479-24.174-10.725 0.67359v30.844c0 2.441 1.8398 4.4062 4.125 4.4062z"
     fill="#fecf00"
     id="path4"
     style="fill-opacity:1;fill:url(#linearGradient863)" />
</svg>
